<?xml version="1.0"?>
<svg width="110" height="135" xmlns="http://www.w3.org/2000/svg" xmlns:svg="http://www.w3.org/2000/svg" version="1.1">

 <g class="layer">
  <title>Layer 1</title>
  <path d="m96.74,64.79l-30.87,-23.25c-0.5,-0.38 -1.16,-0.44 -1.71,-0.16c-0.55,0.27 -0.91,0.84 -0.91,1.46l0,10.93l-44.23,0c-0.9,0 -1.63,0.73 -1.63,1.62l0,21.41c0,0.89 0.73,1.62 1.63,1.62l44.23,0l0,10.93c0.01,0.62 0.36,1.19 0.91,1.46c0.56,0.27 1.21,0.21 1.71,-0.16l30.87,-23.26c0.41,-0.31 0.65,-0.79 0.65,-1.3s-0.24,-0.99 -0.65,-1.3z" fill="#ffffff" id="svg_1"/>
 </g>
</svg>