<?xml version="1.0"?>
<svg width="32" height="40" xmlns="http://www.w3.org/2000/svg" xmlns:svg="http://www.w3.org/2000/svg" clip-rule="evenodd" fill-rule="evenodd" stroke-linejoin="round" version="1.1" xml:space="preserve">

 <g class="layer">
  <title>Layer 1</title>
  <g id="svg_1" transform="matrix(1, 0, 0, 1, -240, -24)">
   <path d="m261.62,43.75c-0.2,0.08 -0.4,0.18 -0.59,0.29c0,0 -2.13,-1.23 -2.13,-1.23c-0.67,-0.39 -1.08,-1.1 -1.08,-1.87l0,-2.97c0,-0.61 -0.24,-1.19 -0.67,-1.62c-0.43,-0.43 -1.01,-0.67 -1.62,-0.67l0,0c-1.27,0 -2.29,1.02 -2.29,2.29c0,0.94 0,2.08 0,2.97c0,0.77 -0.41,1.48 -1.08,1.86l-2.13,1.24c-0.19,-0.11 -0.39,-0.21 -0.59,-0.29c1.46,-0.79 2.45,-2.33 2.45,-4.1c0,-2.58 -2.09,-4.67 -4.66,-4.67c-2.57,0 -4.66,2.09 -4.66,4.67c0,1.77 0.99,3.31 2.45,4.1c-0.67,0.28 -1.29,0.7 -1.82,1.22c-1.07,1.07 -1.67,2.52 -1.67,4.03c0,2.28 0,4.44 0,4.44c0,0.27 0.22,0.5 0.5,0.5l10.4,0c0.28,0 0.5,-0.23 0.5,-0.5l0,-4.44c0,-0.43 -0.05,-0.85 -0.14,-1.26c0,0 1.74,-1.01 1.74,-1.01c0.36,-0.21 0.69,-0.44 1,-0.71c0.31,0.27 0.65,0.51 1.01,0.72c0,0 1.73,1 1.73,1c-0.09,0.41 -0.14,0.83 -0.14,1.26l0,4.44c0,0.27 0.22,0.5 0.5,0.5l10.4,0c0.28,0 0.5,-0.23 0.5,-0.5c0,0 0,-2.16 0,-4.44c0,-1.51 -0.6,-2.96 -1.67,-4.03c-0.53,-0.52 -1.15,-0.94 -1.82,-1.22c1.46,-0.79 2.45,-2.33 2.45,-4.1c0,-2.58 -2.09,-4.67 -4.66,-4.67c-2.57,0 -4.66,2.09 -4.66,4.67c0,1.77 0.99,3.31 2.45,4.1zm-4.8,-5.78l0,3.05c0,2 -1.06,3.85 -2.79,4.85c-1.1,0.63 -2.07,1.19 -2.07,1.19c-0.2,0.12 -0.3,0.36 -0.23,0.58c0.13,0.44 0.2,0.9 0.2,1.36l0,3.94c0,0 -9.4,0 -9.4,0c0,0 0,-3.94 0,-3.94c0,-1.24 0.5,-2.44 1.38,-3.32c0.87,-0.87 2.05,-1.37 3.29,-1.38c0.01,0 0.04,0 0.05,0c0.89,0.01 1.76,0.27 2.5,0.74c0.16,0.1 0.36,0.1 0.52,0.01l2.39,-1.38c0.98,-0.56 1.58,-1.6 1.58,-2.73c0,0 0,-2.97 0,-2.97c0,-0.71 0.58,-1.29 1.29,-1.29c0,0 0,0 0,0c0.34,0 0.67,0.13 0.91,0.38c0.25,0.24 0.38,0.57 0.38,0.91zm0.72,4.97c-0.27,0.87 -0.71,1.68 -1.3,2.37c0.25,0.21 0.52,0.4 0.8,0.56c1.1,0.63 2.06,1.19 2.06,1.19c0.2,0.12 0.3,0.36 0.23,0.58c-0.13,0.44 -0.2,0.9 -0.2,1.36c0,0 0,3.94 0,3.94c0,0 9.4,0 9.4,0c0,0 0,-3.94 0,-3.94c0,-1.24 -0.5,-2.44 -1.38,-3.32c-0.87,-0.87 -2.05,-1.37 -3.29,-1.38c-0.01,0 -0.06,0 -0.07,0c-0.88,0.01 -1.75,0.27 -2.48,0.74c-0.16,0.1 -0.36,0.1 -0.52,0.01c0,0 -1.32,-0.76 -2.39,-1.38c-0.33,-0.19 -0.62,-0.44 -0.86,-0.73zm-10.31,-6.96c2.02,0 3.66,1.64 3.66,3.67c0,2.01 -1.63,3.65 -3.64,3.65c-0.01,0 -0.03,0 -0.04,0c-2.01,-0.01 -3.64,-1.64 -3.64,-3.65c0,-2.03 1.64,-3.67 3.66,-3.67zm16.6,0c2.02,0 3.66,1.64 3.66,3.67c0,2 -1.62,3.64 -3.63,3.65c-0.01,0 -0.05,0 -0.06,0c-2.01,-0.01 -3.63,-1.65 -3.63,-3.65c0,-2.03 1.64,-3.67 3.66,-3.67z" fill="#000000" id="svg_2"/>
  </g>
 </g>
</svg>